<?xml version="1.0" standalone="no"?>
<!DOCTYPE svg PUBLIC "-//W3C//DTD SVG 20010904//EN"
 "http://www.w3.org/TR/2001/REC-SVG-20010904/DTD/svg10.dtd">
<svg version="1.0" xmlns="http://www.w3.org/2000/svg"
 width="260.000000pt" height="260.000000pt" viewBox="0 0 260.000000 260.000000"
 preserveAspectRatio="xMidYMid meet">
<metadata>
Created by potrace 1.11, written by Peter Selinger 2001-2013
</metadata>
<g transform="translate(0.000000,260.000000) scale(0.100000,-0.100000)"
fill="#000000" stroke="none">
<path d="M1223 2587 c-41 -15 -126 -82 -159 -124 -20 -27 -63 -112 -64 -128 0
-3 0 -20 -1 -37 l0 -33 -20 45 c-38 86 -97 128 -190 137 -67 7 -117 -13 -200
-80 -80 -64 -111 -130 -112 -238 l-1 -80 -15 40 c-36 92 -115 142 -216 137
-98 -4 -166 -51 -204 -140 -9 -22 -11 -140 -8 -495 3 -256 7 -482 11 -501 60
-356 170 -595 361 -785 159 -160 333 -248 570 -289 78 -14 311 -14 400 -2 224
33 480 127 642 236 24 17 48 30 53 30 4 0 10 3 12 8 2 4 23 23 48 42 80 62
149 128 220 210 82 94 202 324 199 380 0 3 5 18 11 35 21 56 21 193 -1 290
-11 50 -22 99 -24 110 -3 11 -9 31 -14 45 -9 23 -33 101 -90 292 -27 91 -52
136 -107 197 -57 63 -147 110 -224 116 -30 2 -57 4 -60 4 -3 1 -5 73 -4 160 0
102 -4 175 -13 203 -14 51 -71 114 -123 136 -69 29 -170 14 -230 -34 -70 -57
-109 -98 -125 -134 -10 -22 -21 -40 -25 -40 -3 0 -5 20 -5 44 3 102 -42 189
-118 228 -49 25 -129 32 -174 15z"/>
</g>
</svg>
